# xmcd
#
# Track frame offsets: 
#        150
#        11722
#        23642
#        35335
#        48145
#        60992
#        74135
#        84375
#        96255
#        108310
#        119465
#        130507
#        142600
#        154557
#        167315
#        177547
#        188887
#        200355
#        212482
#        224645
#
# Disc length: 3154 seconds
#
# Revision: 1
# Processed by: cddbd v1.5.2PL0 Copyright (c) Steve Scherf et al.
# Submitted via: ExactAudioCopy v1.0b3
#
DISCID=0a0c5014
DTITLE=Kitty Wells - Honky Tonk Angel
DYEAR=1900
DGENRE=Country
TTITLE0=It Wasn't God Who Made Honky Tonk Angels
TTITLE1=Paying For That Back Street Affair
TTITLE2=Hey Joe
TTITLE3=Cheatin's A Sin
TTITLE4=Release Me
TTITLE5=Makin' Believe
TTITLE6=Whose Shoulder Will You Cry On
TTITLE7=There's Poison In Your Heart
TTITLE8=Lonely Side Of Town
TTITLE9=I've Kissed You My Last Time
TTITLE10=Searching
TTITLE11=Repenting
TTITLE12=Three Ways (To Love You)
TTITLE13=I'll Always Be Your Fraulein
TTITLE14=I Can't Stop Loving You
TTITLE15=Jealousy
TTITLE16=Mommy For A Day
TTITLE17=Amigo's Guitar
TTITLE18=Left To Right
TTITLE19=Heartbreak, U.S.A.
EXTD=
EXTT0=
EXTT1=
EXTT2=
EXTT3=
EXTT4=
EXTT5=
EXTT6=
EXTT7=
EXTT8=
EXTT9=
EXTT10=
EXTT11=
EXTT12=
EXTT13=
EXTT14=
EXTT15=
EXTT16=
EXTT17=
EXTT18=
EXTT19=
PLAYORDER=
